<svg width="143" height="151" viewBox="0 0 143 151" fill="none" xmlns="http://www.w3.org/2000/svg">
<g clip-path="url(#clip0_259_2)">
<path d="M8 143L135 8" stroke="#DFE1E5" stroke-width="2" stroke-linecap="round"/>
<path d="M8 143L135 8" stroke="black" stroke-width="8" stroke-linecap="round"/>
<path d="M8 151C12.4183 151 16 147.418 16 143C16 138.582 12.4183 135 8 135C3.58172 135 0 138.582 0 143C0 147.418 3.58172 151 8 151Z" fill="#606367"/>
<path d="M135 16C139.418 16 143 12.4183 143 8C143 3.58172 139.418 0 135 0C130.582 0 127 3.58172 127 8C127 12.4183 130.582 16 135 16Z" fill="#606367"/>
</g>
<defs>
<clipPath id="clip0_259_2">
<rect width="143" height="151" fill="white"/>
</clipPath>
</defs>
</svg>
