<svg width="139" height="151" viewBox="0 0 139 151" fill="none" xmlns="http://www.w3.org/2000/svg">
<g clip-path="url(#clip0_259_31)">
<path d="M4 143C54.8 143 131 8 131 8" stroke="black" stroke-width="8" stroke-linecap="round"/>
<path opacity="0.8" d="M4 141C2.89543 141 2 141.895 2 143C2 144.105 2.89543 145 4 145V141ZM4 145H54.8V141H4V145Z" fill="#606367"/>
<path d="M54.8 151C59.2183 151 62.8001 147.418 62.8001 143C62.8001 138.582 59.2183 135 54.8 135C50.3818 135 46.8 138.582 46.8 143C46.8 147.418 50.3818 151 54.8 151Z" fill="#606367"/>
<path d="M131 16C135.418 16 139 12.4183 139 8C139 3.58172 135.418 0 131 0C126.582 0 123 3.58172 123 8C123 12.4183 126.582 16 131 16Z" fill="#606367"/>
</g>
<defs>
<clipPath id="clip0_259_31">
<rect width="139" height="151" fill="white"/>
</clipPath>
</defs>
</svg>
