<svg width="148" height="151" viewBox="0 0 148 151" fill="none" xmlns="http://www.w3.org/2000/svg">
<path d="M10 143C63.34 143 83.66 8 137 8" stroke="black" stroke-width="8" stroke-linecap="round"/>
<path opacity="0.8" d="M10 143H63.34" stroke="#606367" stroke-width="4" stroke-linecap="round"/>
<path opacity="0.8" d="M137 8H83.66" stroke="#606367" stroke-width="4" stroke-linecap="round"/>
<path d="M63.34 151C67.7582 151 71.34 147.418 71.34 143C71.34 138.582 67.7582 135 63.34 135C58.9217 135 55.34 138.582 55.34 143C55.34 147.418 58.9217 151 63.34 151Z" fill="#606367"/>
<path d="M83.66 16C88.0783 16 91.66 12.4183 91.66 8C91.66 3.58172 88.0783 0 83.66 0C79.2418 0 75.66 3.58172 75.66 8C75.66 12.4183 79.2418 16 83.66 16Z" fill="#606367"/>
</svg>
